<?xml version="1.0" encoding="utf-8"?>
<!-- Designed by Vexels.com - 2017 All Rights Reserved - https://vexels.com/terms-and-conditions/  -->

<svg version="1.1" id="Layer_1" xmlns="http://www.w3.org/2000/svg" xmlns:xlink="http://www.w3.org/1999/xlink" x="0px" y="0px"
	 width="1200px" height="1200px" viewBox="0 0 1200 1200" enable-background="new 0 0 1200 1200" xml:space="preserve">
<g>
	<path fill="#E30613" d="M1136.365,286.164c-3.42-1.457-6.472-2.19-9.115-2.171l-2.759-0.019
		c-5.495,0.019-11.521,3.405-18.084,10.214h-0.293c-1.452-6.625-3.973-11.859-7.501-15.756c-5.564-4.055-11.044-6.057-16.371-6.057
		c-9.869,0-16.886,4.473-21.036,13.501c-1.145,3.477-1.714,6.986-1.714,10.594c0,13.762,9.723,35.152,29.145,64.132
		c18.447-9.223,33.649-18.531,45.554-27.942c10.545-9.723,15.81-18.408,15.81-25.997v-0.857
		C1150,297.216,1145.442,290.671,1136.365,286.164z"/>
	<path fill="#E30613" d="M981.679,248.488c5.872,9.226,21.444,19.349,46.707,30.409c8.408-13.984,14.588-26.651,18.531-37.987
		c2.905-10.979,2.697-18.977-0.53-24.053l-0.353-0.584c-3.651-5.726-9.462-8.185-17.424-7.329c-2.929,0.519-5.272,1.299-7.025,2.429
		l-1.837,1.188c-3.666,2.321-6.241,7.156-7.724,14.477l-0.192,0.119c-3.79-3.785-7.671-6.207-11.698-7.293
		c-5.457-0.323-9.945,0.623-13.519,2.905c-6.587,4.185-9.346,10.18-8.278,17.985C979.05,243.526,980.157,246.112,981.679,248.488z"
		/>
	<path fill="#E30613" d="M1062.989,386.322c-14.542-0.296-15.479,17.881-15.418,25.276c-22.743,1.356-37.246-0.288-60.288,0.215
		c-4.396-14.392-16.11-26.355-34.256-26.205c-0.3-103.129-141.344-162.971-125.327-271.108
		c-33.864,43.648-71.032,94.794-105.012,146.397c-22.819-14.83,8.162-42.295-19.3-55.695c-13.42-10.976-5.856,14.96-12.928,9.196
		c-18.807-4.546-21.351-27.9-37.23-35.77c-9.776-4.835-26.901,4.166-44.44,0.549c-9.431-1.952-14.626-17.919-20.483-6.832
		c-4.873,9.196-99.479,4.642-88.703,61.383c-4.742,10.357-15.586-7.813-22.489,12.155c-17.662,24.376,18.055,49.401-2.974,58.636
		c3.689,26.854,28.83,47.118,42.734,70.845c-49.412-23.772-67.29-40.205-72.978-66.783c-8.147-37.903,21.398-57.856,37.276-100.677
		c18.846-50.903-24.956-99.582-76.512-120.815c-100.993-41.653-199.618,23.746-299.458-18.169c-6.817-3.581-12.335,8.186-8.3,15.691
		c10.199,28.526,40.55,61.318,82.423,71.748c-6.464,4.604-16.486-2.386-20.852,9.001c1.453,28.461,38.037,46.088,65.076,66.606
		c-7.516-4.547-14.895-8.601-18.999-2.002c10.445,22.138,33.31,40.481,66.929,55.515c-4.504,5.261-11.952,0.918-14.58,12.359
		c7.693,12.501,18.338,24.099,38.905,32.627c-3.351,6.225-10.66-0.538-12.935,9.223c15.056,9.381,20.26,21.797,40.604,29.518
		c-2.751,8.22-9.369,3.812-11.444,14.011c26.025,13.02,42.549,20.191,60.827,44.264c-15.326-0.065,38.567,79.845,77.427,81.163
		c-65.891,31.439-134.587-8.686-171.156,57.875c-18.708,34.072,1.014,67.662-26.401,110.45
		c-7.371-50.201-84.099-79.134-53.786-140.933c8.316-15.671-136.54-87.031-144.548-60.48
		c-20.245,60.062,34.194,57.037,67.451,99.963c33.41,43.122,28.661,123.039,56.207,174.254
		c9.991,18.631,26.785,49.847,47.722,61.419c48.79,26.973,107.603-3.601,152.872-23.365c8.908,24.356,33.041,44.067,30.052,72.109
		c-56.092-16.647-57.875,63.04-87.988,97.876c-13.158,15.237-45.838,10.402-54.586,27.269
		c-7.448,14.449,11.775,43.436,12.913,59.016c1.952,27.466-10.984,43.898-1.514,63.459c5.395,17.578,25.463,18.831,34.963,19.868
		c14.541,0.316,21.052,5.837,32.711,3.924c14.657-4.946-0.153-29.245,4.235-45.92c3.121-11.859,14.057-21.717,18.269-34.49
		c4.519-13.624,1.107-27.95,10.53-42.538c25.978-40.374,103.39-43.537,129.115-92.215c8.217-15.514,14.942-49.086,20.637-69.288
		c13.328-46.961,1.069-85.302-8.07-128.738c67.083,8.304,117.979-83.411,141.505-145.801
		c31.428,35.343,148.338,178.892,174.201,216.676c-19.145-111.676,158.029-178.097,130.63-292.025
		c31.796-13.481,36.469-50.896,24.994-73.723c21.444-0.054,37.284,0.373,57.145-0.519c2.705,9.688,2.121,22.566,16.909,22.355
		c18.531,0.499,48.391-33.249,48.391-33.249S1084.186,382.552,1062.989,386.322z M393.301,185.513
		c-3.919,20.572-11.321,43.983-22.212,70.288c-46.422-12.601-75.883-26.094-88.356-40.474c-3.243-3.739-5.841-7.925-7.77-12.548
		c-3.835-13.147-0.615-24.191,9.692-33.118c5.542-4.834,13.074-7.644,22.566-8.462c7.178,0.826,14.526,4.047,22.043,9.588
		l0.292-0.242c0.676-13.039,3.874-22.028,9.607-26.973l2.882-2.498c2.737-2.413,6.572-4.396,11.491-5.983
		c13.512-3.536,24.141-0.8,31.935,8.154l0.753,0.872C393.102,152.041,395.461,165.841,393.301,185.513z M807.194,164.531
		c-9.1,95.52,112.759,143.772,84.96,245.026c-43.687,1.633-111.53,7.182-165.531,9.342c-2.559-22.889,13.412-45.827,14.511-65.222
		c1.514-28.134-18.262-44.548-19.791-70.011C750.626,242.273,779.525,205.416,807.194,164.531z M671.046,432.929
		c70.91-2.559,158.245-5.799,219.156-9.65c23.134,55.704-1.714,64.035-60.427,73.658c-13.45,2.237-46.284,15.414-62.132,11.276
		C736.284,499.954,666.488,457.94,671.046,432.929z M814.588,737.798c-29.575-35.094-87.603-101.646-123.458-148.365
		c70.48,4.415,163.648,17.174,215.182-39.909C895.843,610.988,799.777,667.249,814.588,737.798z"/>
</g>
</svg>
